<svg width="129" height="128" viewBox="0 0 129 128" fill="none" xmlns="http://www.w3.org/2000/svg">
<path d="M104.5 47.9999C104.5 46.8132 104.852 45.6532 105.511 44.6665C106.17 43.6798 107.107 42.9108 108.204 42.4566C109.3 42.0025 110.506 41.8837 111.67 42.1152C112.834 42.3467 113.903 42.9182 114.742 43.7573C115.582 44.5964 116.153 45.6655 116.384 46.8294C116.616 47.9933 116.497 49.1997 116.043 50.296C115.589 51.3924 114.82 52.3294 113.833 52.9887C112.846 53.648 111.686 53.9999 110.5 53.9999C108.908 53.9999 107.382 53.3678 106.257 52.2426C105.132 51.1173 104.5 49.5912 104.5 47.9999ZM98.4998 35.9999C99.6865 35.9999 100.846 35.648 101.833 34.9887C102.82 34.3294 103.589 33.3924 104.043 32.296C104.497 31.1997 104.616 29.9933 104.384 28.8294C104.153 27.6655 103.582 26.5964 102.742 25.7573C101.903 24.9182 100.834 24.3467 99.6703 24.1152C98.5064 23.8837 97.3 24.0025 96.2037 24.4566C95.1073 24.9108 94.1702 25.6798 93.511 26.6665C92.8517 27.6532 92.4998 28.8132 92.4998 29.9999C92.4998 31.5912 93.1319 33.1173 94.2571 34.2426C95.3824 35.3678 96.9085 35.9999 98.4998 35.9999ZM112.83 63.9999C111.773 63.9128 110.725 64.2488 109.916 64.9342C109.107 65.6196 108.603 66.5982 108.515 67.6549C107.799 76.0172 104.71 84.0011 99.6102 90.6672C94.5108 97.3333 87.6136 102.404 79.73 105.283C71.8464 108.162 63.3045 108.73 55.1093 106.919C46.9141 105.109 39.4065 100.995 33.47 95.0619C27.5335 89.1291 23.4149 81.6242 21.599 73.4301C19.7831 65.236 20.3453 56.6938 23.2195 48.8084C26.0936 40.923 31.1603 34.0226 37.8231 28.919C44.486 23.8154 52.4679 20.721 60.8298 19.9999C61.3551 19.9566 61.8667 19.8102 62.3354 19.5692C62.8041 19.3281 63.2208 18.9971 63.5615 18.595C63.9023 18.1929 64.1606 17.7277 64.3216 17.2258C64.4826 16.7239 64.5431 16.1952 64.4998 15.6699C64.4564 15.1446 64.3101 14.633 64.069 14.1643C63.8279 13.6956 63.4969 13.2789 63.0949 12.9381C62.6928 12.5974 62.2275 12.3391 61.7256 12.1781C61.2237 12.0171 60.6951 11.9566 60.1698 11.9999C50.2899 12.8497 40.8583 16.5036 32.9845 22.5317C25.1107 28.5598 19.1223 36.7112 15.7239 46.0271C12.3255 55.3429 11.6585 65.4356 13.8012 75.1177C15.944 84.7997 20.8074 93.6684 27.8193 100.68C34.8312 107.692 43.6999 112.556 53.382 114.698C63.0641 116.841 73.1568 116.174 82.4726 112.776C91.7885 109.377 99.9399 103.389 105.968 95.5152C111.996 87.6414 115.65 78.2098 116.5 68.3299C116.545 67.8043 116.486 67.2749 116.325 66.7722C116.165 66.2696 115.907 65.8036 115.566 65.4012C115.225 64.9987 114.807 64.6677 114.338 64.4272C113.868 64.1867 113.356 64.0415 112.83 63.9999ZM64.4998 27.9999C71.6199 27.9999 78.5801 30.1113 84.5003 34.067C90.4205 38.0227 95.0347 43.6452 97.7594 50.2233C100.484 56.8015 101.197 64.0399 99.808 71.0232C98.419 78.0065 94.9903 84.4211 89.9556 89.4558C84.9209 94.4904 78.5063 97.9191 71.523 99.3082C64.5397 100.697 57.3013 99.9843 50.7232 97.2596C44.145 94.5348 38.5226 89.9206 34.5669 84.0004C30.6111 78.0803 28.4998 71.12 28.4998 63.9999C28.5104 54.4554 32.3066 45.3048 39.0556 38.5558C45.8046 31.8068 54.9552 28.0105 64.4998 27.9999ZM60.4998 63.9999C60.4998 65.0608 60.9212 66.0782 61.6713 66.8283C62.4215 67.5785 63.4389 67.9999 64.4998 67.9999H88.4998C89.5606 67.9999 90.5781 67.5785 91.3282 66.8283C92.0783 66.0782 92.4998 65.0608 92.4998 63.9999C92.4998 62.939 92.0783 61.9216 91.3282 61.1715C90.5781 60.4213 89.5606 59.9999 88.4998 59.9999H68.4998V39.9999C68.4998 38.9391 68.0783 37.9216 67.3282 37.1715C66.5781 36.4213 65.5606 35.9999 64.4998 35.9999C63.4389 35.9999 62.4215 36.4213 61.6713 37.1715C60.9212 37.9216 60.4998 38.9391 60.4998 39.9999V63.9999ZM80.4998 23.9999C81.6865 23.9999 82.8465 23.648 83.8332 22.9887C84.8199 22.3294 85.5889 21.3924 86.043 20.296C86.4972 19.1997 86.616 17.9933 86.3845 16.8294C86.153 15.6655 85.5815 14.5964 84.7424 13.7573C83.9033 12.9182 82.8342 12.3467 81.6703 12.1152C80.5064 11.8837 79.3 12.0025 78.2037 12.4566C77.1073 12.9108 76.1702 13.6798 75.511 14.6665C74.8517 15.6532 74.4998 16.8132 74.4998 17.9999C74.4998 19.5912 75.1319 21.1173 76.2571 22.2426C77.3824 23.3678 78.9085 23.9999 80.4998 23.9999Z" fill="#D72229"/>
</svg>
