<svg width="25" height="24" viewBox="0 0 25 24" fill="none" xmlns="http://www.w3.org/2000/svg">
<path d="M12.5 6.75C13.5355 6.75 14.375 5.91053 14.375 4.875C14.375 3.83947 13.5355 3 12.5 3C11.4645 3 10.625 3.83947 10.625 4.875C10.625 5.91053 11.4645 6.75 12.5 6.75Z" stroke="url(#paint0_linear_230_8214)" stroke-width="1.5" stroke-linecap="round" stroke-linejoin="round"/>
<path d="M21.125 9.375C22.1605 9.375 23 8.53553 23 7.5C23 6.46447 22.1605 5.625 21.125 5.625C20.0895 5.625 19.25 6.46447 19.25 7.5C19.25 8.53553 20.0895 9.375 21.125 9.375Z" stroke="url(#paint1_linear_230_8214)" stroke-width="1.5" stroke-linecap="round" stroke-linejoin="round"/>
<path d="M3.875 9.375C4.91053 9.375 5.75 8.53553 5.75 7.5C5.75 6.46447 4.91053 5.625 3.875 5.625C2.83947 5.625 2 6.46447 2 7.5C2 8.53553 2.83947 9.375 3.875 9.375Z" stroke="url(#paint2_linear_230_8214)" stroke-width="1.5" stroke-linecap="round" stroke-linejoin="round"/>
<path d="M11.7518 6.5957L8.74994 13.5004L5.05713 8.95539" stroke="url(#paint3_linear_230_8214)" stroke-width="1.5" stroke-linecap="round" stroke-linejoin="round"/>
<path d="M19.9427 8.95539L16.2499 13.5004L13.248 6.5957" stroke="url(#paint4_linear_230_8214)" stroke-width="1.5" stroke-linecap="round" stroke-linejoin="round"/>
<path d="M4.18359 9.34961L5.64609 18.1237C5.67537 18.2987 5.76576 18.4577 5.90119 18.5723C6.03663 18.687 6.20833 18.7499 6.38578 18.7499H18.6145C18.792 18.7499 18.9637 18.687 19.0991 18.5723C19.2346 18.4577 19.3249 18.2987 19.3542 18.1237L20.8167 9.34961" stroke="url(#paint5_linear_230_8214)" stroke-width="1.5" stroke-linecap="round" stroke-linejoin="round"/>
<defs>
<linearGradient id="paint0_linear_230_8214" x1="12.1466" y1="7.50218" x2="19.9901" y2="2.5458" gradientUnits="userSpaceOnUse">
<stop stop-color="white"/>
<stop offset="1" stop-color="#18C8FF"/>
</linearGradient>
<linearGradient id="paint1_linear_230_8214" x1="20.7716" y1="10.1272" x2="28.6151" y2="5.1708" gradientUnits="userSpaceOnUse">
<stop stop-color="white"/>
<stop offset="1" stop-color="#18C8FF"/>
</linearGradient>
<linearGradient id="paint2_linear_230_8214" x1="3.52156" y1="10.1272" x2="11.3651" y2="5.1708" gradientUnits="userSpaceOnUse">
<stop stop-color="white"/>
<stop offset="1" stop-color="#18C8FF"/>
</linearGradient>
<linearGradient id="paint3_linear_230_8214" x1="7.77349" y1="14.8853" x2="22.0197" y2="6.15688" gradientUnits="userSpaceOnUse">
<stop stop-color="white"/>
<stop offset="1" stop-color="#18C8FF"/>
</linearGradient>
<linearGradient id="paint4_linear_230_8214" x1="15.9644" y1="14.8853" x2="30.2107" y2="6.15688" gradientUnits="userSpaceOnUse">
<stop stop-color="white"/>
<stop offset="1" stop-color="#18C8FF"/>
</linearGradient>
<linearGradient id="paint5_linear_230_8214" x1="10.9325" y1="20.6354" x2="32.5674" y2="-3.55463" gradientUnits="userSpaceOnUse">
<stop stop-color="white"/>
<stop offset="1" stop-color="#18C8FF"/>
</linearGradient>
</defs>
</svg>
