<svg width="652" height="157" viewBox="0 0 652 157" fill="none" xmlns="http://www.w3.org/2000/svg">
<g clip-path="url(#clip0_50_917)">
<path d="M112.585 119.436C110.724 124.016 96.8914 156.381 75.4909 157H58.1224C49.7484 157 42.9871 150.255 42.9871 141.9V123.83C42.9871 122.531 44.5998 121.974 45.4062 122.964C47.8254 125.872 51.3611 127.791 55.2691 128.038C55.5792 128.038 55.9514 128.038 56.2615 128.038H99.4966C105.203 128.038 110.352 124.573 112.523 119.374L112.585 119.436Z" fill="#31D366"/>
<path opacity="0.38" d="M112.585 119.436C110.786 123.83 97.9457 153.906 77.9719 156.814V128.1H99.5584C105.265 128.1 110.414 124.635 112.585 119.436Z" fill="url(#paint0_linear_50_917)"/>
<path d="M118.23 23.6397C100.365 12.4387 72.5134 33.8506 68.3574 37.1923L34.737 61.5747C31.0772 64.2357 28.3479 68.3819 28.2859 72.7138C25.5565 62.0698 20.7182 35.9547 35.2953 25.4344L64.2014 4.45566C72.3894 -1.48522 83.5548 -1.48522 91.7428 4.45566L118.23 23.6397Z" fill="#31D366"/>
<path opacity="0.38" d="M62.0923 41.5861L34.6749 61.4509C31.0152 64.1119 28.2858 68.2581 28.2238 72.59C26.9832 67.6393 25.2463 59.285 25.2463 50.7449C25.2463 40.9673 27.4794 30.942 35.2952 25.3106L45.2201 18.132L62.1543 41.648L62.0923 41.5861Z" fill="url(#paint1_linear_50_917)"/>
<path d="M158.363 72.7138L147.694 105.451C153.277 85.2144 124.619 63.9882 121.517 61.7604C121.517 61.7604 121.393 61.6985 121.331 61.6366L86.3462 36.2641C81.3837 32.6748 74.6845 32.6748 69.7841 36.2641L68.4814 37.2542C72.6375 33.9125 100.489 12.5006 118.354 23.7016L149.927 46.5988C158.115 52.5396 161.589 63.1218 158.425 72.7757L158.363 72.7138Z" fill="#31D366"/>
<path opacity="0.38" d="M122.324 26.6102L104.397 49.3835L86.2841 36.2641C81.3217 32.6748 74.6225 32.6748 69.7221 36.2641L68.4194 37.2542C72.5755 33.9125 100.427 12.5006 118.292 23.7016L122.386 26.6721L122.324 26.6102Z" fill="url(#paint2_linear_50_917)"/>
<path d="M147.694 105.451L136.156 140.786C132.993 150.44 123.998 156.938 113.887 156.938H75.5527C96.9532 156.319 110.786 123.954 112.647 119.374C112.647 119.313 112.647 119.251 112.709 119.189C112.709 119.189 112.709 119.065 112.709 119.003C112.709 118.879 112.771 118.818 112.771 118.818C112.833 118.632 112.895 118.446 112.957 118.261L126.293 77.2314C128.154 71.5381 126.169 65.2878 121.455 61.6985C124.557 63.9263 153.215 85.1526 147.632 105.389L147.694 105.451Z" fill="#31D366"/>
<path opacity="0.38" d="M147.694 105.451L146.267 109.844L119.098 99.6953L126.356 77.2932C128.217 71.5999 126.232 65.3496 121.517 61.7603C124.619 63.9881 153.277 85.2144 147.694 105.451Z" fill="url(#paint3_linear_50_917)"/>
<path d="M28.2237 72.5901V115.785H19.4155C8.68422 115.785 0.0620117 107.121 0.0620117 96.4774V58.1092V57.9854C0.0620117 53.963 1.79886 49.9405 5.64473 47.0319C5.83083 46.9082 5.95489 46.7844 6.14098 46.6606L40.8159 21.4119C21.5245 35.3977 29.1542 66.5873 28.2237 72.5901Z" fill="#31D366"/>
<path d="M87.7729 57.2428L62.5266 83.7292L75.8631 85.0288L61.0378 109.906L94.5962 80.3256L78.3443 79.0879L87.7729 57.2428Z" fill="#31D366"/>
<path d="M236.273 42.0193C236.273 52.2921 229.016 59.0993 218.161 59.0993H204.948C204.948 59.0993 204.452 59.285 204.452 59.5944V81.5014C204.452 82.3059 203.956 82.801 203.149 82.801H196.202C195.395 82.801 194.899 82.3059 194.899 81.5014V26.0532C194.899 25.2487 195.395 24.7537 196.202 24.7537H218.719C229.264 24.7537 236.335 31.7466 236.335 42.0812L236.273 42.0193ZM226.659 42.2669C226.659 36.6973 222.937 32.9842 217.292 32.9842H205.01C205.01 32.9842 204.514 33.1699 204.514 33.4793V50.8069C204.514 50.8069 204.7 51.3019 205.01 51.3019H217.292C222.937 51.3019 226.659 47.6508 226.659 42.2669Z" fill="#262626"/>
<path d="M239.933 70.9811C239.003 68.3201 238.506 64.8546 238.506 61.5128C238.506 58.1711 239.003 54.6437 239.809 52.0446C242.29 44.309 248.927 39.7915 257.86 39.7915C266.792 39.7915 272.747 44.3709 275.29 51.9827C276.283 54.6437 276.779 58.1092 276.779 61.4509C276.779 64.7927 276.283 68.1963 275.352 70.9192C272.871 78.7785 266.296 83.5436 257.736 83.5436C249.176 83.5436 242.29 78.8404 239.871 71.043L239.933 70.9811ZM266.234 68.5676C266.916 66.6492 267.164 64.112 267.164 61.5747C267.164 58.8518 266.854 56.3764 266.358 54.5818C265.117 50.4356 261.954 48.0221 257.736 48.0221C253.518 48.0221 250.416 50.4356 249.176 54.5818C248.679 56.3146 248.369 58.7899 248.369 61.5747C248.369 64.1738 248.679 66.773 249.176 68.5676C250.416 72.7139 253.58 75.1892 257.922 75.1892C262.016 75.1892 265.055 72.7139 266.296 68.5676H266.234Z" fill="#262626"/>
<path d="M290.612 81.7489L278.888 41.9574C278.64 41.0292 279.136 40.4722 280.067 40.4722H287.324C288.069 40.4722 288.565 40.7816 288.751 41.648L295.574 68.8152C295.636 69.3102 296.133 69.2483 296.257 68.8152L303.328 41.648C303.514 40.9054 304.073 40.4722 304.817 40.4722H311.206C311.95 40.4722 312.509 40.9054 312.695 41.648L320.014 68.9389C320.076 69.3721 320.573 69.3721 320.697 68.9389L327.83 41.648C328.016 40.9054 328.574 40.4722 329.319 40.4722H336.452C337.383 40.5341 337.879 41.153 337.631 42.0193L325.845 81.7489C325.597 82.4915 325.101 82.801 324.356 82.801H316.975C316.23 82.801 315.734 82.4915 315.486 81.7489L308.353 56.9334C308.167 56.5002 307.794 56.5002 307.67 56.9334L301.095 81.6252C300.909 82.3678 300.351 82.801 299.606 82.801H292.225C291.48 82.801 290.984 82.4915 290.736 81.7489H290.612Z" fill="#262626"/>
<path d="M368.832 70.7954C369.328 70.0528 370.011 69.8672 370.631 70.3623L374.601 73.5183C375.159 74.0134 375.407 74.5704 374.911 75.313C371.747 80.2637 366.103 83.4198 358.783 83.4198C349.789 83.4198 343.896 78.8404 341.353 71.6618C340.298 68.6914 339.678 65.2259 339.678 61.3891C339.678 57.5522 339.864 55.0769 340.608 52.6015C342.655 44.8041 349.23 39.7296 358.163 39.7296C369.266 39.7296 374.725 46.1656 376.338 56.7477C376.648 58.7899 376.834 61.1415 376.896 63.555C376.896 64.3595 376.4 64.8546 375.593 64.8546H349.851C349.541 64.8546 349.354 65.0402 349.354 65.3496C349.354 66.8349 349.541 68.0725 349.851 69.0008C351.029 72.8995 354.565 75.313 359.714 75.313C363.87 75.1273 366.971 73.3946 368.77 70.7336L368.832 70.7954ZM350.161 53.9011C349.851 54.8912 349.603 55.9433 349.479 57.3666C349.416 57.676 349.541 57.8617 349.913 57.8617H366.599C366.909 57.8617 367.095 57.676 367.095 57.3666C366.909 56.1289 366.847 55.1388 366.599 54.3961C365.606 50.5593 362.629 48.084 358.101 48.084C353.573 48.084 351.091 50.4356 350.099 53.9011H350.161Z" fill="#262626"/>
<path d="M407.911 40.9054C408.593 41.2148 408.841 41.8336 408.655 42.5762L407.353 49.4454C407.167 50.3736 406.67 50.4974 405.802 50.2499C404.747 49.9405 403.197 49.7548 401.584 50.0023C397.118 50.2499 393.458 53.3441 393.458 58.3567V81.5014C393.458 82.3058 392.962 82.8009 392.155 82.8009H385.208C384.402 82.8009 383.905 82.3058 383.905 81.5014V41.7718C383.905 40.9673 384.402 40.4722 385.208 40.4722H392.155C392.962 40.4722 393.458 40.9673 393.458 41.7718V44.9897C393.458 45.4229 393.706 45.5467 393.954 45.1754C396.125 41.9574 399.289 39.9771 403.569 39.9771C405.554 39.9771 406.918 40.4103 407.973 40.9054H407.911Z" fill="#262626"/>
<path d="M427.637 70.9811C426.706 68.3201 426.21 64.8546 426.21 61.5128C426.21 58.1711 426.706 54.6437 427.513 52.0446C429.994 44.309 436.631 39.7915 445.563 39.7915C454.496 39.7915 460.451 44.3709 462.994 51.9827C463.986 54.6437 464.483 58.1092 464.483 61.4509C464.483 64.7927 463.986 68.1963 463.056 70.9192C460.575 78.7785 454 83.5436 445.439 83.5436C436.879 83.5436 429.994 78.8404 427.575 71.043L427.637 70.9811ZM453.937 68.5676C454.62 66.6492 454.868 64.112 454.868 61.5747C454.868 58.8518 454.558 56.3764 454.062 54.5818C452.821 50.4356 449.657 48.0221 445.439 48.0221C441.221 48.0221 438.12 50.4356 436.879 54.5818C436.383 56.3146 436.073 58.7899 436.073 61.5747C436.073 64.1738 436.383 66.773 436.879 68.5676C438.12 72.7139 441.283 75.1892 445.625 75.1892C449.719 75.1892 452.759 72.7139 454 68.5676H453.937Z" fill="#262626"/>
<path d="M493.823 41.7099V47.5889C493.823 48.3934 493.327 48.8884 492.52 48.8884H484.704C484.704 48.8884 484.208 49.0741 484.208 49.3835V81.4395C484.208 82.244 483.712 82.739 482.906 82.739H475.896C475.09 82.739 474.594 82.244 474.594 81.4395V49.3835C474.594 49.0741 474.407 48.8884 474.097 48.8884H469.383C468.577 48.8884 468.08 48.3934 468.08 47.5889V41.7099C468.08 40.9054 468.577 40.4103 469.383 40.4103H474.097C474.407 40.4103 474.594 40.2246 474.594 39.9152V38.4919C474.594 27.9716 478.253 24.7536 489.791 24.8155H492.396C493.203 24.8155 493.699 25.3106 493.699 26.1151V31.2515C493.699 32.0559 493.203 32.551 492.396 32.551H490.597C485.759 32.551 484.27 34.0981 484.27 39.1107V39.8533C484.27 40.1628 484.456 40.3484 484.766 40.3484H492.582C493.389 40.3484 493.885 40.8435 493.885 41.648L493.823 41.7099Z" fill="#262626"/>
<path d="M553.31 33.108H525.458C525.148 33.108 524.962 33.2937 524.962 33.6031V48.9504C524.962 48.9504 525.148 49.4454 525.458 49.4454H544.067C544.874 49.4454 545.37 49.9405 545.37 50.745V56.3764C545.37 57.1809 544.874 57.676 544.067 57.676H525.458C525.458 57.676 524.962 57.8617 524.962 58.1711V81.4395C524.962 82.244 524.466 82.7391 523.659 82.7391H516.712C515.906 82.7391 515.409 82.244 515.409 81.4395V26.1151C515.409 25.3106 515.906 24.8156 516.712 24.8156H553.372C554.178 24.8156 554.675 25.3106 554.675 26.1151V31.7466C554.675 32.5511 554.178 33.0461 553.372 33.0461L553.31 33.108Z" fill="#262626"/>
<path d="M558.334 29.0855C558.334 25.62 560.94 23.1447 564.537 23.1447C568.135 23.1447 570.678 25.62 570.678 29.0855C570.678 32.551 568.197 35.1502 564.537 35.1502C560.878 35.1502 558.334 32.6748 558.334 29.0855ZM559.761 81.5014V41.7718C559.761 40.9673 560.257 40.4722 561.064 40.4722H568.011C568.818 40.4722 569.314 40.9673 569.314 41.7718V81.5014C569.314 82.3059 568.818 82.8009 568.011 82.8009H561.064C560.257 82.8009 559.761 82.3059 559.761 81.5014Z" fill="#262626"/>
<path d="M588.543 81.7489L575.393 41.9574C575.083 40.9673 575.579 40.4722 576.447 40.4722H584.263C585.008 40.4722 585.504 40.7817 585.752 41.5243L593.63 69.0627C593.816 69.4959 594.126 69.4959 594.312 69.0627L602.19 41.648C602.438 40.8435 602.934 40.4722 603.679 40.4722H611.494C612.425 40.5341 612.921 41.153 612.549 42.0193L599.523 81.7489C599.275 82.4915 598.778 82.801 598.034 82.801H589.97C589.226 82.801 588.729 82.4915 588.481 81.7489H588.543Z" fill="#262626"/>
<path d="M643.874 70.7954C644.37 70.0528 645.053 69.8672 645.673 70.3623L649.643 73.5183C650.201 74.0134 650.449 74.5704 649.953 75.313C646.79 80.2637 641.145 83.4198 633.825 83.4198C624.831 83.4198 618.938 78.8404 616.395 71.6618C615.34 68.6914 614.72 65.2259 614.72 61.3891C614.72 57.5522 614.906 55.0769 615.65 52.6015C617.697 44.8041 624.273 39.7296 633.205 39.7296C644.308 39.7296 649.767 46.1656 651.38 56.7477C651.69 58.7899 651.876 61.1415 651.938 63.555C651.938 64.3595 651.442 64.8546 650.635 64.8546H624.893C624.583 64.8546 624.397 65.0402 624.397 65.3496C624.397 66.8349 624.583 68.0725 624.893 69.0008C626.072 72.8995 629.607 75.313 634.756 75.313C638.912 75.1273 642.013 73.3946 643.812 70.7336L643.874 70.7954ZM625.203 53.9011C624.893 54.8912 624.645 55.9433 624.521 57.3666C624.459 57.676 624.583 57.8617 624.955 57.8617H641.641C641.951 57.8617 642.137 57.676 642.137 57.3666C641.951 56.1289 641.889 55.1388 641.641 54.3961C640.649 50.5593 637.671 48.084 633.143 48.084C628.615 48.084 626.134 50.4356 625.141 53.9011H625.203Z" fill="#262626"/>
<path d="M208.98 109.225V111.268H203.645V128.657H201.102V111.268H195.768V109.225H208.98Z" fill="#262626"/>
<path d="M222.875 113.867C223.805 114.362 224.55 115.104 225.046 116.095C225.542 117.085 225.852 118.261 225.852 119.684V128.719H223.309V120.055C223.309 118.508 222.937 117.332 222.192 116.528C221.448 115.723 220.394 115.29 219.091 115.29C217.788 115.29 216.672 115.723 215.865 116.528C215.059 117.332 214.687 118.57 214.687 120.179V128.657H212.144V107.988H214.687V115.538C215.183 114.733 215.865 114.176 216.796 113.743C217.664 113.31 218.657 113.124 219.773 113.124C220.952 113.124 222.006 113.372 222.937 113.867H222.875Z" fill="#262626"/>
<path d="M243.903 121.974H231.683C231.745 123.459 232.303 124.635 233.234 125.501C234.164 126.367 235.343 126.801 236.646 126.801C237.762 126.801 238.693 126.553 239.375 126.058C240.119 125.563 240.616 124.882 240.926 124.016H243.655C243.221 125.501 242.414 126.677 241.174 127.605C239.933 128.533 238.382 128.966 236.584 128.966C235.157 128.966 233.854 128.657 232.676 127.976C231.497 127.296 230.629 126.429 229.946 125.192C229.264 123.954 228.954 122.592 228.954 121.045C228.954 119.498 229.264 118.075 229.884 116.899C230.505 115.723 231.435 114.795 232.552 114.176C233.73 113.557 235.033 113.186 236.522 113.186C238.01 113.186 239.251 113.495 240.367 114.114C241.484 114.733 242.352 115.6 242.973 116.713C243.593 117.827 243.903 119.065 243.903 120.488C243.903 120.983 243.903 121.478 243.841 122.035L243.903 121.974ZM240.74 117.456C240.305 116.775 239.747 116.218 239.003 115.847C238.258 115.476 237.452 115.29 236.584 115.29C235.281 115.29 234.226 115.723 233.296 116.528C232.366 117.332 231.869 118.508 231.745 119.931H241.422C241.422 118.941 241.236 118.137 240.802 117.456H240.74Z" fill="#262626"/>
<path d="M253.704 110.834V108.545H258.976V128.719H256.433V110.834H253.766H253.704Z" fill="#262626"/>
<path d="M297.745 110.463C299.296 111.268 300.475 112.382 301.343 113.867C302.212 115.352 302.584 117.085 302.584 119.065C302.584 121.045 302.15 122.778 301.343 124.263C300.537 125.749 299.296 126.862 297.745 127.605C296.195 128.348 294.334 128.781 292.225 128.781H286.146V109.349H292.225C294.334 109.349 296.195 109.721 297.745 110.525V110.463ZM297.994 124.635C299.296 123.335 299.978 121.417 299.978 119.065C299.978 116.713 299.296 114.733 297.994 113.372C296.691 112.01 294.768 111.33 292.225 111.33H288.689V126.615H292.225C294.768 126.615 296.691 125.934 297.994 124.635Z" fill="#262626"/>
<path d="M319.828 121.974H307.608C307.67 123.459 308.229 124.635 309.159 125.501C310.089 126.367 311.268 126.801 312.571 126.801C313.687 126.801 314.618 126.553 315.3 126.058C316.044 125.563 316.541 124.882 316.851 124.016H319.58C319.146 125.501 318.339 126.677 317.099 127.605C315.858 128.533 314.308 128.966 312.509 128.966C311.082 128.966 309.779 128.657 308.601 127.976C307.422 127.296 306.554 126.429 305.871 125.192C305.189 123.954 304.879 122.592 304.879 121.045C304.879 119.498 305.189 118.075 305.809 116.899C306.43 115.723 307.36 114.795 308.477 114.176C309.655 113.557 310.958 113.186 312.447 113.186C313.935 113.186 315.176 113.495 316.292 114.114C317.409 114.733 318.277 115.6 318.898 116.713C319.518 117.827 319.828 119.065 319.828 120.488C319.828 120.983 319.828 121.478 319.766 122.035L319.828 121.974ZM316.665 117.456C316.23 116.775 315.672 116.218 314.928 115.847C314.183 115.476 313.377 115.29 312.509 115.29C311.206 115.29 310.151 115.723 309.221 116.528C308.291 117.332 307.794 118.508 307.67 119.931H317.347C317.347 118.941 317.161 118.137 316.727 117.456H316.665Z" fill="#262626"/>
<path d="M323.302 116.899C323.922 115.723 324.791 114.795 325.969 114.176C327.086 113.495 328.388 113.186 329.815 113.186C331.676 113.186 333.227 113.619 334.467 114.547C335.708 115.476 336.514 116.713 336.886 118.322H334.157C333.909 117.394 333.413 116.652 332.606 116.095C331.862 115.538 330.931 115.29 329.815 115.29C328.388 115.29 327.21 115.785 326.279 116.775C325.411 117.765 324.915 119.189 324.915 120.983C324.915 122.778 325.349 124.263 326.279 125.253C327.148 126.244 328.326 126.739 329.815 126.739C330.931 126.739 331.862 126.491 332.606 125.934C333.351 125.439 333.847 124.696 334.157 123.706H336.886C336.452 125.253 335.646 126.491 334.405 127.481C333.165 128.471 331.614 128.905 329.815 128.905C328.388 128.905 327.086 128.595 325.969 127.914C324.853 127.234 323.984 126.367 323.302 125.13C322.681 123.954 322.371 122.531 322.371 120.922C322.371 119.313 322.681 117.951 323.302 116.775V116.899Z" fill="#262626"/>
<path d="M354.131 121.974H341.911C341.973 123.459 342.531 124.635 343.462 125.501C344.392 126.367 345.571 126.801 346.873 126.801C347.99 126.801 348.92 126.553 349.603 126.058C350.347 125.563 350.843 124.882 351.153 124.016H353.883C353.449 125.501 352.642 126.677 351.402 127.605C350.161 128.533 348.61 128.966 346.811 128.966C345.385 128.966 344.082 128.657 342.903 127.976C341.725 127.296 340.856 126.429 340.174 125.192C339.492 123.954 339.182 122.592 339.182 121.045C339.182 119.498 339.492 118.075 340.112 116.899C340.732 115.723 341.663 114.795 342.779 114.176C343.958 113.557 345.261 113.186 346.749 113.186C348.238 113.186 349.479 113.495 350.595 114.114C351.712 114.733 352.58 115.6 353.2 116.713C353.821 117.827 354.131 119.065 354.131 120.488C354.131 120.983 354.131 121.478 354.069 122.035L354.131 121.974ZM350.967 117.456C350.533 116.775 349.975 116.218 349.231 115.847C348.486 115.476 347.68 115.29 346.811 115.29C345.509 115.29 344.454 115.723 343.524 116.528C342.593 117.332 342.097 118.508 341.973 119.931H351.65C351.65 118.941 351.464 118.137 351.029 117.456H350.967Z" fill="#262626"/>
<path d="M369.576 114.795C370.755 115.909 371.313 117.518 371.313 119.684V128.719H368.77V120.055C368.77 118.508 368.398 117.332 367.653 116.528C366.909 115.723 365.855 115.29 364.552 115.29C363.249 115.29 362.133 115.723 361.326 116.528C360.52 117.332 360.148 118.57 360.148 120.179V128.657H357.604V113.372H360.148V115.538C360.644 114.733 361.326 114.176 362.195 113.743C363.063 113.31 363.994 113.124 365.048 113.124C366.909 113.124 368.398 113.681 369.576 114.795Z" fill="#262626"/>
<path d="M378.633 115.476V124.511C378.633 125.253 378.819 125.81 379.129 126.058C379.439 126.367 379.997 126.491 380.804 126.491H382.665V128.657H380.37C378.943 128.657 377.888 128.348 377.206 127.667C376.524 126.986 376.151 125.934 376.151 124.449V115.414H374.167V113.31H376.151V109.473H378.695V113.31H382.665V115.414H378.695L378.633 115.476Z" fill="#262626"/>
<path d="M390.17 113.867C390.977 113.372 392.031 113.124 393.21 113.124V115.723H392.527C389.674 115.723 388.247 117.27 388.247 120.365V128.657H385.704V113.372H388.247V115.847C388.682 114.981 389.302 114.3 390.17 113.805V113.867Z" fill="#262626"/>
<path d="M396.125 116.899C396.746 115.723 397.614 114.795 398.731 114.176C399.847 113.495 401.088 113.186 402.452 113.186C403.817 113.186 404.934 113.495 405.926 114.052C406.919 114.609 407.663 115.352 408.159 116.218V113.434H410.764V128.719H408.159V125.872C407.663 126.739 406.919 127.481 405.926 128.1C404.934 128.657 403.755 128.966 402.452 128.966C401.15 128.966 399.847 128.657 398.793 127.976C397.676 127.296 396.808 126.367 396.187 125.13C395.567 123.892 395.257 122.531 395.257 120.983C395.257 119.436 395.567 118.075 396.187 116.837L396.125 116.899ZM407.415 118.013C406.919 117.147 406.298 116.528 405.554 116.033C404.809 115.538 403.879 115.352 402.949 115.352C402.018 115.352 401.15 115.6 400.343 116.033C399.537 116.466 398.917 117.147 398.482 118.013C398.048 118.879 397.8 119.87 397.8 121.045C397.8 122.221 398.048 123.211 398.482 124.078C398.979 124.944 399.599 125.625 400.343 126.058C401.15 126.491 402.018 126.739 402.949 126.739C403.879 126.739 404.747 126.491 405.554 126.058C406.36 125.625 406.981 124.944 407.415 124.078C407.849 123.211 408.097 122.221 408.097 121.045C408.097 119.87 407.849 118.879 407.415 118.013Z" fill="#262626"/>
<path d="M417.588 108.05V128.719H415.044V108.05H417.588Z" fill="#262626"/>
<path d="M421.992 110.401C421.682 110.092 421.496 109.659 421.496 109.164C421.496 108.668 421.682 108.297 421.992 107.926C422.302 107.616 422.736 107.431 423.232 107.431C423.667 107.431 424.101 107.616 424.411 107.926C424.721 108.235 424.907 108.668 424.907 109.164C424.907 109.659 424.721 110.03 424.411 110.401C424.101 110.711 423.667 110.896 423.232 110.896C422.736 110.896 422.364 110.711 421.992 110.401ZM424.473 113.434V128.719H421.93V113.434H424.473Z" fill="#262626"/>
<path d="M430.676 126.615H438.182V128.719H427.761V126.615L435.204 115.476H427.823V113.434H438.12V115.476L430.676 126.615Z" fill="#262626"/>
<path d="M455.426 121.974H443.206C443.268 123.459 443.827 124.635 444.757 125.501C445.688 126.367 446.866 126.801 448.169 126.801C449.285 126.801 450.216 126.553 450.898 126.058C451.642 125.563 452.139 124.882 452.449 124.016H455.178C454.744 125.501 453.938 126.677 452.697 127.605C451.456 128.533 449.906 128.966 448.107 128.966C446.68 128.966 445.377 128.657 444.199 127.976C443.02 127.296 442.152 126.429 441.47 125.192C440.787 123.954 440.477 122.592 440.477 121.045C440.477 119.498 440.787 118.075 441.408 116.899C442.028 115.723 442.958 114.795 444.075 114.176C445.253 113.557 446.556 113.186 448.045 113.186C449.533 113.186 450.774 113.495 451.891 114.114C453.007 114.733 453.876 115.6 454.496 116.713C455.116 117.827 455.426 119.065 455.426 120.488C455.426 120.983 455.426 121.478 455.364 122.035L455.426 121.974ZM452.201 117.456C451.767 116.775 451.208 116.218 450.464 115.847C449.72 115.476 448.913 115.29 448.045 115.29C446.742 115.29 445.688 115.723 444.757 116.528C443.827 117.332 443.33 118.508 443.206 119.931H452.883C452.883 118.941 452.697 118.137 452.263 117.456H452.201Z" fill="#262626"/>
<path d="M458.838 116.899C459.458 115.723 460.327 114.795 461.443 114.176C462.56 113.495 463.8 113.186 465.165 113.186C466.344 113.186 467.46 113.434 468.515 113.991C469.569 114.547 470.314 115.29 470.872 116.156V108.05H473.477V128.719H470.872V125.872C470.376 126.801 469.631 127.543 468.639 128.1C467.646 128.657 466.468 128.966 465.165 128.966C463.862 128.966 462.56 128.657 461.443 127.976C460.327 127.296 459.458 126.367 458.838 125.13C458.218 123.892 457.907 122.531 457.907 120.983C457.907 119.436 458.218 118.075 458.838 116.837V116.899ZM470.189 118.013C469.693 117.147 469.073 116.528 468.329 116.033C467.584 115.538 466.654 115.352 465.723 115.352C464.793 115.352 463.924 115.6 463.118 116.033C462.312 116.466 461.691 117.147 461.257 118.013C460.823 118.879 460.575 119.87 460.575 121.045C460.575 122.221 460.823 123.211 461.257 124.078C461.753 124.944 462.374 125.625 463.118 126.058C463.924 126.491 464.793 126.739 465.723 126.739C466.654 126.739 467.522 126.491 468.329 126.058C469.135 125.625 469.755 124.944 470.189 124.078C470.624 123.211 470.872 122.221 470.872 121.045C470.872 119.87 470.624 118.879 470.189 118.013Z" fill="#262626"/>
<path d="M487.744 111.33V117.827H494.815V119.931H487.744V126.615H495.684V128.719H485.201V109.225H495.684V111.33H487.744Z" fill="#262626"/>
<path d="M499.592 116.899C500.212 115.723 501.081 114.795 502.259 114.176C503.376 113.495 504.678 113.186 506.105 113.186C507.966 113.186 509.517 113.619 510.757 114.547C511.998 115.476 512.804 116.713 513.176 118.322H510.447C510.199 117.394 509.703 116.652 508.896 116.095C508.152 115.538 507.222 115.29 506.105 115.29C504.678 115.29 503.5 115.785 502.569 116.775C501.701 117.765 501.205 119.189 501.205 120.983C501.205 122.778 501.639 124.263 502.569 125.253C503.438 126.244 504.616 126.739 506.105 126.739C507.222 126.739 508.152 126.491 508.896 125.934C509.641 125.439 510.137 124.696 510.447 123.706H513.176C512.742 125.253 511.936 126.491 510.695 127.481C509.455 128.471 507.904 128.905 506.105 128.905C504.678 128.905 503.376 128.595 502.259 127.914C501.143 127.234 500.274 126.367 499.592 125.13C498.972 123.954 498.661 122.531 498.661 120.922C498.661 119.313 498.972 117.951 499.592 116.775V116.899Z" fill="#262626"/>
<path d="M519.318 127.976C518.139 127.296 517.27 126.429 516.588 125.192C515.906 124.016 515.596 122.592 515.596 121.045C515.596 119.498 515.906 118.075 516.588 116.899C517.27 115.723 518.201 114.795 519.38 114.114C520.558 113.495 521.861 113.124 523.349 113.124C524.838 113.124 526.141 113.434 527.319 114.114C528.498 114.733 529.428 115.661 530.111 116.837C530.793 118.013 531.103 119.436 531.103 120.983C531.103 122.531 530.731 123.954 530.049 125.13C529.366 126.305 528.436 127.234 527.195 127.914C526.017 128.533 524.652 128.905 523.225 128.905C521.799 128.905 520.496 128.595 519.318 127.914V127.976ZM525.831 126.058C526.637 125.625 527.257 125.006 527.754 124.14C528.25 123.273 528.498 122.221 528.498 121.045C528.498 119.87 528.25 118.756 527.754 117.889C527.257 117.023 526.637 116.404 525.831 115.971C525.024 115.538 524.218 115.352 523.287 115.352C522.357 115.352 521.489 115.538 520.744 115.971C520 116.404 519.38 117.023 518.883 117.889C518.387 118.756 518.201 119.808 518.201 121.045C518.201 122.283 518.449 123.335 518.883 124.201C519.318 125.068 519.938 125.687 520.682 126.12C521.427 126.553 522.295 126.739 523.225 126.739C524.156 126.739 525.024 126.553 525.831 126.12V126.058Z" fill="#262626"/>
<path d="M556.101 113.867C557.032 114.362 557.776 115.104 558.335 116.095C558.893 117.085 559.141 118.261 559.141 119.684V128.719H556.598V120.055C556.598 118.508 556.226 117.332 555.481 116.528C554.737 115.723 553.682 115.29 552.442 115.29C551.201 115.29 550.085 115.723 549.278 116.59C548.472 117.456 548.1 118.632 548.1 120.241V128.657H545.556V119.993C545.556 118.446 545.184 117.27 544.44 116.466C543.695 115.661 542.641 115.228 541.4 115.228C540.16 115.228 539.043 115.661 538.237 116.528C537.43 117.394 537.058 118.57 537.058 120.179V128.595H534.515V113.31H537.058V115.538C537.554 114.733 538.237 114.114 539.105 113.681C539.974 113.248 540.904 113.062 541.897 113.062C543.199 113.062 544.316 113.372 545.308 113.929C546.301 114.486 547.045 115.352 547.541 116.466C547.975 115.414 548.658 114.548 549.65 113.929C550.643 113.31 551.759 113.062 552.938 113.062C554.116 113.062 555.171 113.31 556.101 113.805V113.867Z" fill="#262626"/>
<path d="M584.883 113.867C585.814 114.362 586.558 115.104 587.117 116.095C587.675 117.085 587.923 118.261 587.923 119.684V128.719H585.38V120.055C585.38 118.508 585.007 117.332 584.263 116.528C583.519 115.723 582.464 115.29 581.224 115.29C579.983 115.29 578.866 115.723 578.06 116.59C577.254 117.456 576.882 118.632 576.882 120.241V128.657H574.338V119.993C574.338 118.446 573.966 117.27 573.222 116.466C572.477 115.661 571.423 115.228 570.182 115.228C568.942 115.228 567.825 115.661 567.019 116.528C566.212 117.394 565.84 118.57 565.84 120.179V128.595H563.297V113.31H565.84V115.538C566.336 114.733 567.019 114.114 567.887 113.681C568.756 113.248 569.686 113.062 570.678 113.062C571.981 113.062 573.098 113.372 574.09 113.929C575.083 114.486 575.827 115.352 576.323 116.466C576.757 115.414 577.44 114.548 578.432 113.929C579.425 113.31 580.541 113.062 581.72 113.062C582.898 113.062 583.953 113.31 584.883 113.805V113.867Z" fill="#262626"/>
<path d="M605.974 121.974H593.754C593.816 123.459 594.374 124.635 595.305 125.501C596.235 126.367 597.414 126.801 598.716 126.801C599.833 126.801 600.763 126.553 601.445 126.058C602.19 125.563 602.686 124.882 602.996 124.016H605.726C605.291 125.501 604.485 126.677 603.244 127.605C602.004 128.533 600.453 128.966 598.654 128.966C597.227 128.966 595.925 128.657 594.746 127.976C593.568 127.296 592.699 126.429 592.017 125.192C591.335 123.954 591.024 122.592 591.024 121.045C591.024 119.498 591.335 118.075 591.955 116.899C592.575 115.723 593.506 114.795 594.622 114.176C595.801 113.557 597.103 113.186 598.592 113.186C600.081 113.186 601.321 113.495 602.438 114.114C603.555 114.733 604.423 115.6 605.043 116.713C605.664 117.827 605.974 119.065 605.974 120.488C605.974 120.983 605.974 121.478 605.912 122.035L605.974 121.974ZM602.81 117.456C602.376 116.775 601.818 116.218 601.073 115.847C600.329 115.476 599.523 115.29 598.654 115.29C597.352 115.29 596.297 115.723 595.367 116.528C594.436 117.332 593.94 118.508 593.816 119.931H603.493C603.493 118.941 603.306 118.137 602.872 117.456H602.81Z" fill="#262626"/>
<path d="M613.851 113.867C614.658 113.372 615.712 113.124 616.891 113.124V115.723H616.209C613.355 115.723 611.929 117.27 611.929 120.365V128.657H609.385V113.372H611.929V115.847C612.363 114.981 612.983 114.3 613.851 113.805V113.867Z" fill="#262626"/>
<path d="M619.868 116.899C620.489 115.723 621.357 114.795 622.536 114.176C623.652 113.495 624.955 113.186 626.382 113.186C628.243 113.186 629.793 113.619 631.034 114.547C632.275 115.476 633.081 116.713 633.453 118.322H630.724C630.476 117.394 629.979 116.652 629.173 116.095C628.429 115.538 627.498 115.29 626.382 115.29C624.955 115.29 623.776 115.785 622.846 116.775C621.978 117.765 621.481 119.189 621.481 120.983C621.481 122.778 621.915 124.263 622.846 125.253C623.714 126.244 624.893 126.739 626.382 126.739C627.498 126.739 628.429 126.491 629.173 125.934C629.917 125.439 630.414 124.696 630.724 123.706H633.453C633.019 125.253 632.212 126.491 630.972 127.481C629.731 128.471 628.181 128.905 626.382 128.905C624.955 128.905 623.652 128.595 622.536 127.914C621.419 127.234 620.551 126.367 619.868 125.13C619.248 123.954 618.938 122.531 618.938 120.922C618.938 119.313 619.248 117.951 619.868 116.775V116.899Z" fill="#262626"/>
<path d="M650.697 121.974H638.477C638.539 123.459 639.098 124.635 640.028 125.501C640.959 126.367 642.137 126.801 643.44 126.801C644.556 126.801 645.487 126.553 646.169 126.058C646.913 125.563 647.41 124.882 647.72 124.016H650.449C650.015 125.501 649.209 126.677 647.968 127.605C646.727 128.533 645.177 128.966 643.378 128.966C641.951 128.966 640.648 128.657 639.47 127.976C638.291 127.296 637.423 126.429 636.741 125.192C636.058 123.954 635.748 122.592 635.748 121.045C635.748 119.498 636.058 118.075 636.679 116.899C637.299 115.723 638.229 114.795 639.346 114.176C640.524 113.557 641.827 113.186 643.316 113.186C644.804 113.186 646.045 113.495 647.162 114.114C648.278 114.733 649.147 115.6 649.767 116.713C650.387 117.827 650.697 119.065 650.697 120.488C650.697 120.983 650.697 121.478 650.635 122.035L650.697 121.974ZM647.534 117.456C647.1 116.775 646.541 116.218 645.797 115.847C645.053 115.476 644.246 115.29 643.378 115.29C642.075 115.29 641.021 115.723 640.09 116.528C639.16 117.332 638.663 118.508 638.539 119.931H648.216C648.216 118.941 648.03 118.137 647.596 117.456H647.534Z" fill="#262626"/>
<path d="M264.497 119.808C263.939 119.56 263.505 119.251 263.195 118.817C262.884 118.384 262.698 117.889 262.636 117.332H264.249C264.249 117.765 264.497 118.199 264.869 118.446C265.242 118.756 265.8 118.879 266.42 118.879C266.978 118.879 267.475 118.756 267.785 118.508C268.095 118.261 268.281 117.951 268.281 117.518C268.281 117.085 268.095 116.837 267.723 116.59C267.351 116.404 266.792 116.218 266.048 116.033C265.366 115.847 264.807 115.661 264.373 115.476C263.939 115.29 263.567 115.043 263.257 114.671C262.946 114.3 262.822 113.805 262.822 113.248C262.822 112.753 262.946 112.32 263.257 111.948C263.567 111.577 263.939 111.268 264.435 111.02C264.931 110.773 265.552 110.649 266.234 110.649C267.288 110.649 268.095 110.896 268.715 111.391C269.335 111.886 269.708 112.629 269.708 113.495H268.157C268.157 113 267.909 112.629 267.599 112.32C267.226 112.01 266.792 111.886 266.172 111.886C265.614 111.886 265.179 112.01 264.869 112.258C264.559 112.505 264.373 112.815 264.373 113.186C264.373 113.495 264.497 113.743 264.683 113.929C264.869 114.114 265.117 114.3 265.428 114.424C265.738 114.547 266.11 114.671 266.668 114.795C267.351 114.981 267.847 115.166 268.281 115.352C268.715 115.538 269.025 115.785 269.335 116.156C269.646 116.528 269.77 116.961 269.832 117.518C269.832 118.013 269.708 118.508 269.398 118.879C269.149 119.313 268.715 119.622 268.219 119.808C267.723 120.055 267.102 120.179 266.42 120.179C265.738 120.179 265.055 120.055 264.497 119.808Z" fill="#262626"/>
<path d="M273.802 112.01V117.456C273.802 117.889 273.926 118.199 274.112 118.384C274.298 118.57 274.608 118.632 275.104 118.632H276.221V119.931H274.856C273.988 119.931 273.367 119.746 272.933 119.313C272.499 118.941 272.313 118.261 272.313 117.394V111.948H271.134V110.711H272.313V108.359H273.864V110.711H276.283V111.948H273.864L273.802 112.01Z" fill="#262626"/>
</g>
<defs>
<linearGradient id="paint0_linear_50_917" x1="106.134" y1="138.125" x2="85.8498" y2="138.125" gradientUnits="userSpaceOnUse">
<stop/>
<stop offset="1" stop-opacity="0"/>
</linearGradient>
<linearGradient id="paint1_linear_50_917" x1="24.2539" y1="54.0248" x2="43.3915" y2="40.6154" gradientUnits="userSpaceOnUse">
<stop/>
<stop offset="1" stop-opacity="0"/>
</linearGradient>
<linearGradient id="paint2_linear_50_917" x1="84.6714" y1="24.9393" x2="104.556" y2="37.7301" gradientUnits="userSpaceOnUse">
<stop/>
<stop offset="1" stop-opacity="0"/>
</linearGradient>
<linearGradient id="paint3_linear_50_917" x1="137.149" y1="77.4789" x2="129.489" y2="96.9847" gradientUnits="userSpaceOnUse">
<stop/>
<stop offset="1" stop-opacity="0"/>
</linearGradient>
<clipPath id="clip0_50_917">
<rect width="652" height="157" fill="white"/>
</clipPath>
</defs>
</svg>
